<svg width="24" height="24" viewBox="0 0 24 24" fill="none" xmlns="http://www.w3.org/2000/svg">
<path d="M21.0036 18.5027V20.0033C21.0036 20.5555 20.5554 21.0037 20.0032 21.0037H18.0024C17.4501 21.0037 17.002 20.5555 17.002 20.0033V18.5027" stroke="black" stroke-width="1.5" stroke-linecap="round" stroke-linejoin="round"/>
<path d="M6.99776 18.5027V20.0033C6.99776 20.5555 6.54957 21.0037 5.99734 21.0037H3.99651C3.44428 21.0037 2.99609 20.5555 2.99609 20.0033V18.5027" stroke="black" stroke-width="1.5" stroke-linecap="round" stroke-linejoin="round"/>
<path fill-rule="evenodd" clip-rule="evenodd" d="M2.99609 18.5027V13.7437C2.99609 12.9474 3.31223 12.1841 3.87546 11.6219L4.99693 10.4994H19.0028L20.1242 11.6209C20.6875 12.1841 21.0036 12.9474 21.0036 13.7437V18.5027H2.99609Z" stroke="black" stroke-width="1.5" stroke-linecap="round" stroke-linejoin="round"/>
<path d="M21.0032 14.501L18.002 14.7511" stroke="black" stroke-width="1.5" stroke-linecap="round" stroke-linejoin="round"/>
<path d="M5.99734 14.7511L2.99609 14.501" stroke="black" stroke-width="1.5" stroke-linecap="round" stroke-linejoin="round"/>
<path d="M7.99805 18.5027L8.99846 15.5015H15.001L16.0014 18.5027" stroke="black" stroke-width="1.5" stroke-linecap="round" stroke-linejoin="round"/>
<path d="M21.0028 9.49894L19.002 9.99915" stroke="black" stroke-width="1.5" stroke-linecap="round" stroke-linejoin="round"/>
<path d="M4.99693 9.99915L2.99609 9.49894" stroke="black" stroke-width="1.5" stroke-linecap="round" stroke-linejoin="round"/>
<path d="M4.99609 10.4994V9.99315L5.83244 6.85484C6.12356 5.75939 7.11598 4.99707 8.24845 4.99707H15.8356C16.9931 4.99707 17.9995 5.7914 18.2686 6.91787L19.0019 9.99315V10.4994" stroke="black" stroke-width="1.5" stroke-linecap="round" stroke-linejoin="round"/>
</svg>
