<svg width="24" height="24" viewBox="0 0 24 24" fill="none" xmlns="http://www.w3.org/2000/svg">
<path d="M9.99735 13.0004L6.42333 19.255C6.33486 19.4098 6.3355 19.6 6.42499 19.7542C6.51449 19.9084 6.67932 20.0033 6.85763 20.0033H8.54297C8.83146 20.0033 9.1059 19.8788 9.29586 19.6617L15.1245 13.0004" stroke="black" stroke-width="1.5" stroke-linecap="round" stroke-linejoin="round"/>
<path d="M8.85455 15.0013H6.66317C5.58087 15.0013 4.52776 14.6502 3.66192 14.0008L0.994141 12L1.99456 10.9996L0.994141 6.99792H3.99539L5.99622 9.99917H20.0021C21.6596 9.99917 23.0033 11.3429 23.0033 13.0004V13.0004C23.0033 14.1055 22.1075 15.0013 21.0025 15.0013H13.3743" stroke="black" stroke-width="1.5" stroke-linecap="round" stroke-linejoin="round"/>
<path d="M15.126 9.99914L10.1728 4.33834C9.98284 4.1212 9.70837 3.99664 9.41986 3.99664H7.73453C7.55623 3.99664 7.39143 4.09158 7.30194 4.2458C7.21245 4.40001 7.21182 4.5902 7.30027 4.745L10.3026 9.99914" stroke="black" stroke-width="1.5" stroke-linecap="round" stroke-linejoin="round"/>
</svg>
