<svg width="24" height="24" viewBox="0 0 24 24" fill="none" xmlns="http://www.w3.org/2000/svg">
<path d="M9.23633 6.86384V4.45784C9.23633 3.97063 9.63149 3.57547 10.1187 3.57547H13.8823C14.3695 3.57547 14.7646 3.97063 14.7646 4.45784V6.86384" stroke="black" stroke-width="1.5" stroke-linecap="round" stroke-linejoin="round"/>
<path d="M6.4707 11.3817V8.63057C6.4707 7.65517 7.26103 6.86484 8.23644 6.86484H15.7626C16.738 6.86484 17.5283 7.65517 17.5283 8.63057V11.3817" stroke="black" stroke-width="1.5" stroke-linecap="round" stroke-linejoin="round"/>
<path d="M12.0002 1.99582V3.57548" stroke="black" stroke-width="1.5" stroke-linecap="round" stroke-linejoin="round"/>
<path d="M16.6864 17.6333L18.0019 15.0012L20.0028 12L11.9994 9.99915L3.99609 12L5.99693 15.0012L6.87629 17.4923" stroke="black" stroke-width="1.5" stroke-linecap="round" stroke-linejoin="round"/>
<path d="M2.99609 17.4022C4.09655 16.902 5.49714 16.902 6.59759 17.4022C7.69805 17.9024 9.09864 17.9024 10.1991 17.4022C11.2996 16.902 12.7001 16.902 13.8006 17.4022C14.9011 17.9024 16.3016 17.9024 17.4021 17.4022C18.5026 16.902 19.9031 16.902 21.0036 17.4022" stroke="black" stroke-width="1.5" stroke-linecap="round" stroke-linejoin="round"/>
<path d="M6.59766 20.6286C7.69811 21.1288 9.0987 21.1288 10.1992 20.6286C11.2996 20.1284 12.7002 20.1284 13.8007 20.6286C14.9011 21.1288 16.3017 21.1288 17.4022 20.6286" stroke="black" stroke-width="1.5" stroke-linecap="round" stroke-linejoin="round"/>
</svg>
