<svg width="24" height="24" viewBox="0 0 24 24" fill="none" xmlns="http://www.w3.org/2000/svg">
<path d="M1 21V21C1 19.001 2.62 17.381 4.619 17.381H8.238C10.237 17.381 11.857 19.001 11.857 21V21" stroke="black" stroke-width="1.5" stroke-linecap="round" stroke-linejoin="round"/>
<path d="M8.66812 9.2606C9.90491 10.4974 9.90491 12.5026 8.66812 13.7394C7.43133 14.9762 5.4261 14.9762 4.18931 13.7394C2.95252 12.5026 2.95252 10.4974 4.18931 9.2606C5.4261 8.02381 7.43133 8.02381 8.66812 9.2606" stroke="black" stroke-width="1.5" stroke-linecap="round" stroke-linejoin="round"/>
<path d="M18.0954 13.808C20.8034 13.808 22.9994 11.612 22.9994 8.904C22.9994 6.196 20.8044 4 18.0954 4C15.3864 4 13.1914 6.196 13.1914 8.904" stroke="black" stroke-width="1.5" stroke-linecap="round" stroke-linejoin="round"/>
<path d="M18.1006 13.813C17.3626 13.813 16.6636 13.65 16.0356 13.359L13.0176 14L13.6486 10.976C13.3556 10.346 13.1916 9.64399 13.1916 8.90399" stroke="black" stroke-width="1.5" stroke-linecap="round" stroke-linejoin="round"/>
<path d="M15.8127 8.96464C15.8322 8.98417 15.8322 9.01583 15.8127 9.03536C15.7932 9.05488 15.7615 9.05488 15.742 9.03536C15.7225 9.01583 15.7225 8.98417 15.742 8.96464C15.7615 8.94512 15.7932 8.94512 15.8127 8.96464" stroke="black" stroke-width="1.5" stroke-linecap="round" stroke-linejoin="round"/>
<path d="M18.0627 8.96464C18.0822 8.98417 18.0822 9.01583 18.0627 9.03536C18.0432 9.05488 18.0115 9.05488 17.992 9.03536C17.9725 9.01583 17.9725 8.98417 17.992 8.96464C18.0115 8.94512 18.0432 8.94512 18.0627 8.96464" stroke="black" stroke-width="1.5" stroke-linecap="round" stroke-linejoin="round"/>
<path d="M20.3127 8.96464C20.3322 8.98417 20.3322 9.01583 20.3127 9.03536C20.2932 9.05488 20.2615 9.05488 20.242 9.03536C20.2225 9.01583 20.2225 8.98417 20.242 8.96464C20.2615 8.94512 20.2932 8.94512 20.3127 8.96464" stroke="black" stroke-width="1.5" stroke-linecap="round" stroke-linejoin="round"/>
</svg>
